<?xml version="1.0" encoding="UTF-8" standalone="no"?>
<svg width="65px" height="66px" viewBox="0 0 65 66" version="1.1" xmlns="http://www.w3.org/2000/svg" xmlns:xlink="http://www.w3.org/1999/xlink" xmlns:sketch="http://www.bohemiancoding.com/sketch/ns">
    <!-- Generator: Sketch 3.3.2 (12043) - http://www.bohemiancoding.com/sketch -->
    <title>housewares</title>
    <desc>Created with Sketch.</desc>
    <defs></defs>
    <g id="Mall-Dash" stroke="none" stroke-width="1" fill="none" fill-rule="evenodd" sketch:type="MSPage">
        <g id="housewares" sketch:type="MSLayerGroup">
            <circle id="Oval-9-Copy-8" fill="#FFFFFF" sketch:type="MSShapeGroup" cx="32.5" cy="33.15" r="32.5"></circle>
            <g id="thin-0894_scale_weight_kitchen_appliances" transform="translate(13.300000, 13.150000)" sketch:type="MSShapeGroup">
                <g id="Group" transform="translate(1.600000, 0.000000)" stroke="#000000" stroke-width="2">
                    <circle id="Oval" cx="17.6" cy="24.09952" r="1.21728"></circle>
                    <path d="M17.6,22.88208 L17.6,17.71616" id="Shape"></path>
                    <circle id="Oval" cx="17.6" cy="24.09952" r="8.49616"></circle>
                    <path d="M17.16096,12.16848 C10.63728,12.40048 5.56128,17.96016 5.56128,24.488 L5.56128,35.69152 C5.56128,36.71392 6.39008,37.54272 7.41248,37.54272 L27.78752,37.54272 C28.80992,37.54272 29.63872,36.71392 29.63872,35.69152 L29.63872,24.19936 C29.63856,17.4048 24.00992,11.9248 17.16096,12.16848 L17.16096,12.16848 Z" id="Shape"></path>
                    <path d="M20,12.40112 L20,8.89248" id="Shape"></path>
                    <path d="M15.2,8.89248 L15.2,12.4048" id="Shape"></path>
                    <path d="M30.87776,5.63152 L4.32224,5.63152 C2.60016,5.63152 0.8,3.84592 0.8,2.12368 L0.8,0.83152 L34.4,0.83152 L34.4,2.12368 C34.4,3.84592 32.59984,5.63152 30.87776,5.63152 L30.87776,5.63152 Z" id="Shape"></path>
                </g>
                <rect id="Rectangle-path" x="0" y="0.03152" width="38.4" height="38.4"></rect>
            </g>
        </g>
    </g>
</svg>