<?xml version="1.0" encoding="UTF-8" standalone="no"?>
<svg width="65px" height="65px" viewBox="0 0 65 65" version="1.1" xmlns="http://www.w3.org/2000/svg" xmlns:xlink="http://www.w3.org/1999/xlink" xmlns:sketch="http://www.bohemiancoding.com/sketch/ns">
    <!-- Generator: Sketch 3.3.2 (12043) - http://www.bohemiancoding.com/sketch -->
    <title>luggage</title>
    <desc>Created with Sketch.</desc>
    <defs></defs>
    <g id="Mall-Dash" stroke="none" stroke-width="1" fill="none" fill-rule="evenodd" sketch:type="MSPage">
        <g id="luggage" sketch:type="MSLayerGroup">
            <circle id="Oval-9-Copy" fill="#FFFFFF" sketch:type="MSShapeGroup" cx="32.5" cy="32.5" r="32.5"></circle>
            <g id="thin-0379_business_suitcase" transform="translate(12.500000, 12.500000)" sketch:type="MSShapeGroup">
                <g id="Group" transform="translate(1.600000, 3.200000)" stroke="#000000" stroke-width="2">
                    <path d="M37.6384,32.58864 C37.6384,34.46848 36.11456,35.99232 34.23472,35.99232 L4.11488,35.99232 C2.23504,35.99232 0.7112,34.46848 0.7112,32.58864 L0.7112,12.19216 C0.7112,10.31232 2.23504,8.78848 4.11488,8.78848 L34.23472,8.78848 C36.11456,8.78848 37.6384,10.31232 37.6384,12.19216 L37.6384,32.58864 L37.6384,32.58864 Z" id="Shape"></path>
                    <path d="M11.98688,5.588 L11.98688,4.724 C11.98688,2.55856 13.844,0.8032 16.13504,0.8032 L22.1952,0.8032 C24.48608,0.8032 26.34336,2.55856 26.34336,4.724 L26.34336,5.588" id="Shape"></path>
                    <path d="M21.54784,18.43456 L37.6384,18.43456" id="Shape"></path>
                    <path d="M0.71136,18.43456 L16.72304,18.43456" id="Shape"></path>
                    <path d="M21.54784,20.808 C21.54784,21.23328 21.20336,21.57808 20.77808,21.57808 L17.4928,21.57808 C17.06768,21.57808 16.7232,21.23328 16.7232,20.808 L16.7232,17.52272 C16.7232,17.0976 17.06768,16.75312 17.4928,16.75312 L20.77824,16.75312 C21.20336,16.75312 21.548,17.0976 21.548,17.52272 L21.548,20.808 L21.54784,20.808 Z" id="Shape"></path>
                </g>
                <rect id="Rectangle-path" x="1.58032" y="1.57664" width="38.4" height="38.4"></rect>
            </g>
        </g>
    </g>
</svg>