<?xml version="1.0" encoding="UTF-8" standalone="no"?>
<svg width="66px" height="66px" viewBox="0 0 66 66" version="1.1" xmlns="http://www.w3.org/2000/svg" xmlns:xlink="http://www.w3.org/1999/xlink" xmlns:sketch="http://www.bohemiancoding.com/sketch/ns">
    <!-- Generator: Sketch 3.3.2 (12043) - http://www.bohemiancoding.com/sketch -->
    <title>vending</title>
    <desc>Created with Sketch.</desc>
    <defs></defs>
    <g id="Mall-Dash" stroke="none" stroke-width="1" fill="none" fill-rule="evenodd" sketch:type="MSPage">
        <g id="vending" sketch:type="MSLayerGroup">
            <circle id="Oval-9-Copy-11" fill="#FFFFFF" sketch:type="MSShapeGroup" cx="33" cy="33" r="32.5"></circle>
            <g id="thin-0423_coin_payment_chip" transform="translate(13.000000, 13.800000)" sketch:type="MSShapeGroup">
                <g id="Group" transform="translate(6.400000, 0.000000)" stroke="#000000">
                    <path d="M15.02784,9.09024 C16.1104,9.84928 18.01056,11.75008 18.74848,13.54384 C19.92816,16.41152 19.75872,19.53184 16.3232,18.05344 C16.03536,17.9296 15.80608,17.69472 15.704,17.3984 L13.59904,11.28624 C12.72368,8.63792 8.75424,9.95296 9.66464,12.7072 L12.67008,21.80064 C13.14768,23.24576 15.55984,27.25456 18.804,30.65456" id="Shape" stroke-width="2"></path>
                    <path d="M20.9060468,37.2222188 L17.1599535,31.7901525 L27.3270662,24.7786488 L31.0731596,30.2107151 L20.9060468,37.2222188 L20.9060468,37.2222188 Z" id="Rectangle-path" stroke-width="1.99994153"></path>
                    <path d="M10.3464,14.76928 C9.68144,14.97968 8.84352,15.14128 8.10896,15.14128 C4.25344,15.14128 1.12784,12.01568 1.12784,8.16016 C1.12784,4.30464 4.25344,1.17904 8.10896,1.17904 C11.96448,1.17904 15.09008,4.30464 15.09008,8.16016 C15.09008,9.51136 14.51936,10.9592 13.85456,12.028" id="Shape" stroke-width="2"></path>
                    <path d="M13.16608,3.34816 C13.16608,3.34816 25.12928,7.34656 25.05616,16.86992 C24.98304,26.39328 25.556,25.99808 25.556,25.99808" id="Shape" stroke-width="2"></path>
                </g>
                <rect id="Rectangle-path" x="1.57824" y="0" width="38.4" height="38.4"></rect>
            </g>
        </g>
    </g>
</svg>