<?xml version="1.0" encoding="UTF-8" standalone="no"?>
<svg width="29px" height="28px" viewBox="0 0 29 28" version="1.1" xmlns="http://www.w3.org/2000/svg" xmlns:xlink="http://www.w3.org/1999/xlink" xmlns:sketch="http://www.bohemiancoding.com/sketch/ns">
    <!-- Generator: Sketch 3.2.2 (9983) - http://www.bohemiancoding.com/sketch -->
    <title>settings</title>
    <desc>Created with Sketch.</desc>
    <defs></defs>
    <g id="Icons" stroke="none" stroke-width="1" fill="none" fill-rule="evenodd" sketch:type="MSPage">
        <g sketch:type="MSArtboardGroup" transform="translate(-50.000000, -48.000000)" id="settings" fill="#FFFFFF">
            <path d="M52.8074544,59.8739348 L52.8074544,74.7845494 C52.8074544,75.1902432 53.1481573,75.5182975 53.5682254,75.5182975 L54.3641437,75.5182975 C54.7836449,75.5182975 55.1249147,75.1902432 55.1249147,74.7845494 L55.1249147,59.8739348 L52.8074544,59.8739348 Z M55.1249147,50.1941459 L55.1249147,49.2143571 C55.1249147,48.8108503 54.7836449,48.4811557 54.3641437,48.4811557 L53.5682254,48.4811557 C53.1481573,48.4811557 52.8074544,48.8108503 52.8074544,49.2143571 L52.8074544,50.1941459 L55.1249147,50.1941459 L55.1249147,50.1941459 Z M56.5750281,51.6610954 L51.357341,51.6610954 C51.0427152,51.6610954 50.7876131,51.8677696 50.7876131,52.1220117 L50.7876131,57.9466158 C50.7876131,58.2008578 51.0427152,58.4075321 51.357341,58.4075321 L56.5750281,58.4075321 C56.8902208,58.4075321 57.1458898,58.2008578 57.1458898,57.9466158 L57.1458898,52.1214649 C57.1453229,51.8672229 56.8896539,51.6610954 56.5750281,51.6610954 Z M63.4542798,71.3569287 L63.4542798,74.7850962 C63.4542798,75.19079 63.7944158,75.5188443 64.2144839,75.5188443 L65.0109691,75.5188443 C65.4316041,75.5188443 65.7717401,75.19079 65.7717401,74.7850962 L65.7717401,71.3569287 L63.4542798,71.3569287 Z M65.7717401,61.6765931 L65.7717401,49.2143571 C65.7717401,48.8108503 65.4316041,48.4811557 65.0109691,48.4811557 L64.2144839,48.4811557 C63.7944158,48.4811557 63.4542798,48.8108503 63.4542798,49.2143571 L63.4542798,61.6765931 L65.7717401,61.6765931 Z M67.2218535,63.1435426 L62.0041664,63.1435426 C61.6895406,63.1435426 61.4338716,63.3485765 61.4338716,63.6050057 L61.4338716,69.429063 C61.4338716,69.6843986 61.6895406,69.8894325 62.0041664,69.8894325 L67.2218535,69.8894325 C67.5370462,69.8894325 67.7921483,69.6843986 67.7921483,69.429063 L67.7921483,63.6050057 C67.7921483,63.3485765 67.5370462,63.1435426 67.2218535,63.1435426 Z M76.4185655,54.2510841 L76.4185655,49.2143571 C76.4185655,48.8108503 76.0778626,48.4811557 75.6583614,48.4811557 L74.8618762,48.4811557 C74.4418081,48.4811557 74.1016721,48.8108503 74.1016721,49.2143571 L74.1016721,54.2510841 L76.4185655,54.2510841 Z M74.1016721,63.9319664 L74.1016721,74.7850962 C74.1016721,75.19079 74.4418081,75.5188443 74.8618762,75.5188443 L75.6583614,75.5188443 C76.0778626,75.5188443 76.4185655,75.19079 76.4185655,74.7850962 L76.4185655,63.9319664 L74.1016721,63.9319664 Z M77.7927152,55.7180336 L72.5750281,55.7180336 C72.2598353,55.7180336 72.0047333,55.9247078 72.0047333,56.1805901 L72.0047333,62.0030072 C72.0047333,62.2583428 72.2598353,62.4644702 72.5750281,62.4644702 L77.7927152,62.4644702 C78.1084748,62.4644702 78.3630099,62.2583428 78.3630099,62.0030072 L78.3630099,56.1805901 C78.3630099,55.9247078 78.1084748,55.7180336 77.7927152,55.7180336 Z" sketch:type="MSShapeGroup"></path>
        </g>
    </g>
</svg>