<?xml version="1.0" encoding="UTF-8" standalone="no"?>
<svg width="19px" height="30px" viewBox="0 0 19 30" version="1.1" xmlns="http://www.w3.org/2000/svg" xmlns:xlink="http://www.w3.org/1999/xlink" xmlns:sketch="http://www.bohemiancoding.com/sketch/ns">
    <!-- Generator: Sketch 3.2.2 (9983) - http://www.bohemiancoding.com/sketch -->
    <title>pin</title>
    <desc>Created with Sketch.</desc>
    <defs></defs>
    <g id="Icons" stroke="none" stroke-width="1" fill="none" fill-rule="evenodd" sketch:type="MSPage">
        <g sketch:type="MSArtboardGroup" transform="translate(-116.000000, -47.000000)" id="pin" fill="#FFFFFF">
            <path d="M129.048239,69.9402568 L128.439768,71.1603435 C131.709019,71.5655799 133.68463,72.5893021 133.68463,73.3466189 C133.68463,74.3115567 130.495913,75.7123739 125.49968,75.7123739 C120.503448,75.7123739 117.316648,74.3115567 117.316648,73.3466189 C117.316648,72.4510965 120.070105,71.1822313 124.464897,71.0052531 L125.497124,73.0476945 L132.594241,59.0213875 L132.585932,59.0213875 C133.285801,57.8406987 133.6923,56.474902 133.6923,55.0140499 C133.6923,50.5883432 130.023581,47 125.500959,47 C120.977697,47 117.308978,50.5883432 117.308978,55.0140499 C117.308978,56.474902 117.716117,57.8413241 118.412151,59.0213875 L118.406398,59.0213875 L123.830222,69.7482698 C119.715377,70.0084216 116,71.2335112 116,73.3466189 C116,75.7455182 120.778921,77 125.49968,77 C130.220439,77 135,75.7455182 135,73.3466189 C135.000639,71.5618277 132.350725,70.4117819 129.048239,69.9402568 L129.048239,69.9402568 L129.048239,69.9402568 Z M122.059777,54.0265988 C122.059777,52.1667639 123.600128,50.6583841 125.50032,50.6583841 C127.403068,50.6583841 128.942779,52.1667639 128.942779,54.0265988 C128.942779,55.885183 127.403068,57.3923122 125.50032,57.3923122 C123.600128,57.3923122 122.059777,55.885183 122.059777,54.0265988 L122.059777,54.0265988 L122.059777,54.0265988 Z" sketch:type="MSShapeGroup"></path>
        </g>
    </g>
</svg>