<?xml version="1.0" encoding="UTF-8" standalone="no"?>
<svg width="31px" height="49px" viewBox="0 0 31 49" version="1.1" xmlns="http://www.w3.org/2000/svg" xmlns:xlink="http://www.w3.org/1999/xlink" xmlns:sketch="http://www.bohemiancoding.com/sketch/ns">
    <!-- Generator: Sketch 3.2.2 (9983) - http://www.bohemiancoding.com/sketch -->
    <title>pin</title>
    <desc>Created with Sketch.</desc>
    <defs></defs>
    <g id="Page-1" stroke="none" stroke-width="1" fill="none" fill-rule="evenodd" sketch:type="MSPage">
        <g id="pin" sketch:type="MSLayerGroup" fill="#FFFFFF">
            <g id="Page-1" sketch:type="MSShapeGroup">
                <g id="pin-white">
                    <path d="M20.904,37.097 L19.952,39.048 C25.067,39.696 28.158,41.333 28.158,42.544 C28.158,44.087 23.169,46.327 15.352,46.327 C7.535,46.327 2.549,44.087 2.549,42.544 C2.549,41.112 6.857,39.083 13.733,38.8 L15.348,42.066 L26.452,19.637 L26.439,19.637 C27.534,17.749 28.17,15.565 28.17,13.229 C28.17,6.152 22.43,0.414 15.354,0.414 C8.277,0.414 2.537,6.152 2.537,13.229 C2.537,15.565 3.174,17.75 4.263,19.637 L4.254,19.637 L12.74,36.79 C6.302,37.206 0.489,39.165 0.489,42.544 C0.489,46.38 7.966,48.386 15.352,48.386 C22.738,48.386 30.216,46.38 30.216,42.544 C30.217,39.69 26.071,37.851 20.904,37.097 L20.904,37.097 L20.904,37.097 Z M9.97,11.65 C9.97,8.676 12.38,6.264 15.353,6.264 C18.33,6.264 20.739,8.676 20.739,11.65 C20.739,14.622 18.33,17.032 15.353,17.032 C12.38,17.032 9.97,14.622 9.97,11.65 L9.97,11.65 L9.97,11.65 Z" id="pin"></path>
                </g>
            </g>
        </g>
    </g>
</svg>