<?xml version="1.0" encoding="UTF-8" standalone="no"?>
<svg width="65px" height="65px" viewBox="0 0 65 65" version="1.1" xmlns="http://www.w3.org/2000/svg" xmlns:xlink="http://www.w3.org/1999/xlink" xmlns:sketch="http://www.bohemiancoding.com/sketch/ns">
    <!-- Generator: Sketch 3.3.2 (12043) - http://www.bohemiancoding.com/sketch -->
    <title>children</title>
    <desc>Created with Sketch.</desc>
    <defs></defs>
    <g id="Mall-Dash" stroke="none" stroke-width="1" fill="none" fill-rule="evenodd" sketch:type="MSPage">
        <g id="children" sketch:type="MSLayerGroup">
            <circle id="Oval-9-Copy-6" fill="#FFFFFF" sketch:type="MSShapeGroup" cx="32.5" cy="32.5" r="32.5"></circle>
            <g id="thin-0835_football_soccer_sports" transform="translate(12.500000, 13.300000)" sketch:type="MSShapeGroup">
                <g id="Group" transform="translate(1.600000, 0.000000)" stroke="#000000" stroke-width="2">
                    <path d="M19.21296,1.2328 C9.27696,1.2328 1.22016,9.28896 1.22016,19.2256 C1.22016,29.16224 9.27712,37.2184 19.21296,37.2184 C29.1488,37.2184 37.20576,29.16224 37.20576,19.2256 C37.20576,9.28896 29.14896,1.2328 19.21296,1.2328 L19.21296,1.2328 L19.21296,1.2328 Z" id="Shape"></path>
                    <path d="M14.29232,26.8288 L11.2344,17.39264 L19.23328,11.56144 L27.23392,17.62656 L24.17904,26.8288 L14.29232,26.8288 Z" id="Shape"></path>
                    <path d="M26.11904,2.60608 L19.23328,5.53936 L12.36896,2.58048" id="Shape"></path>
                    <path d="M5.59392,7.46736 L6.29184,14.97696 L1.2808,20.712" id="Shape"></path>
                    <path d="M4.0176,28.57952 L11.23584,30.24192 L15.04496,36.73312" id="Shape"></path>
                    <path d="M23.428,36.72192 L27.23392,30.23872 L34.61376,28.53376" id="Shape"></path>
                    <path d="M37.14832,20.67376 L32.17408,14.97232 L32.84944,7.48752" id="Shape"></path>
                    <path d="M19.23328,5.53936 L19.23328,11.56144" id="Shape"></path>
                    <path d="M27.23392,17.62656 L32.17408,14.97232" id="Shape"></path>
                    <path d="M24.17904,26.8288 L27.23392,30.23872" id="Shape"></path>
                    <path d="M14.29232,26.8288 L11.23584,30.24192" id="Shape"></path>
                    <path d="M6.29184,14.97696 L11.2344,17.39264" id="Shape"></path>
                </g>
                <rect id="Rectangle-path" x="1.59024" y="0" width="38.4" height="38.4"></rect>
            </g>
        </g>
    </g>
</svg>