<?xml version="1.0" encoding="UTF-8" standalone="no"?>
<svg width="65px" height="66px" viewBox="0 0 65 66" version="1.1" xmlns="http://www.w3.org/2000/svg" xmlns:xlink="http://www.w3.org/1999/xlink" xmlns:sketch="http://www.bohemiancoding.com/sketch/ns">
    <!-- Generator: Sketch 3.3.2 (12043) - http://www.bohemiancoding.com/sketch -->
    <title>food</title>
    <desc>Created with Sketch.</desc>
    <defs></defs>
    <g id="Mall-Dash" stroke="none" stroke-width="1" fill="none" fill-rule="evenodd" sketch:type="MSPage">
        <g id="food" sketch:type="MSLayerGroup">
            <circle id="Oval-9-Copy-5" fill="#FFFFFF" sketch:type="MSShapeGroup" cx="32.5" cy="33" r="32.5"></circle>
            <g id="thin-0909_hamburger_fast_food" transform="translate(13.300000, 13.000000)" sketch:type="MSShapeGroup">
                <g id="Group" transform="translate(0.000000, 1.600000)" stroke="#000000" stroke-width="2">
                    <path d="M35.7608,15.21408 C35.7608,7.27648 28.33984,0.84192 19.1856,0.84192 C10.03136,0.84192 2.61056,7.27648 2.61056,15.21408 L35.7608,15.21408 L35.7608,15.21408 Z" id="Shape"></path>
                    <path d="M35.7608,29.608 L2.61056,29.608 L2.61056,30.1328 C2.61056,32.49392 4.47296,34.408 6.7704,34.408 L31.60112,34.408 C33.89856,34.408 35.76096,32.49392 35.76096,30.1328 L35.76096,29.608 L35.7608,29.608 Z" id="Shape"></path>
                    <path d="M37.62288,26.27808 C37.62288,25.46624 36.93568,24.808 36.08816,24.808 L2.28336,24.808 C1.43568,24.808 0.74864,25.46608 0.74864,26.27808 L0.74864,28.13808 C0.74864,28.94992 1.43584,29.608 2.28336,29.608 L36.08816,29.608 C36.93584,29.608 37.62288,28.94992 37.62288,28.13808 L37.62288,26.27808 L37.62288,26.27808 Z" id="Shape"></path>
                    <path d="M36.7464,18.7424 L33.86032,21.4912 L30.8856,18.65824 L27.91104,21.4912 L24.93616,18.65824 L22.05024,21.40704 L19.07536,18.57408 L16.1008,21.40704 L13.12592,18.57408 L13.08912,18.62192 L10.2032,21.37072 L7.22832,18.53776 L4.25376,21.37072 L1.27888,18.53776" id="Shape"></path>
                    <path d="M15.0472,5.72656 L15.47248,5.72656" id="Shape"></path>
                    <path d="M19.8016,8.8264 L20.22688,8.8264" id="Shape"></path>
                    <path d="M22.98832,5.72656 L23.4136,5.72656" id="Shape"></path>
                </g>
                <rect id="Rectangle-path" x="0" y="0.03152" width="38.4" height="38.4"></rect>
            </g>
        </g>
    </g>
</svg>