<?xml version="1.0" encoding="UTF-8" standalone="no"?>
<svg width="65px" height="65px" viewBox="0 0 65 65" version="1.1" xmlns="http://www.w3.org/2000/svg" xmlns:xlink="http://www.w3.org/1999/xlink" xmlns:sketch="http://www.bohemiancoding.com/sketch/ns">
    <!-- Generator: Sketch 3.3.2 (12043) - http://www.bohemiancoding.com/sketch -->
    <title>restrooms</title>
    <desc>Created with Sketch.</desc>
    <defs></defs>
    <g id="Mall-Dash" stroke="none" stroke-width="1" fill="none" fill-rule="evenodd" sketch:type="MSPage">
        <g id="restrooms" sketch:type="MSLayerGroup">
            <circle id="Oval-9-Copy-3" fill="#FFFFFF" sketch:type="MSShapeGroup" cx="32.5" cy="32.5" r="32.5"></circle>
            <g id="thin-0558_men_women_toilet_wc_restroom" transform="translate(13.000000, 12.000000)" sketch:type="MSShapeGroup">
                <g id="Group" transform="translate(4.800000, 0.000000)" stroke="#000000" stroke-width="2">
                    <path d="M15.97808,0.75664 L15.97808,37.516" id="Shape"></path>
                    <path d="M28.09392,37.38784 L28.09392,27.95776 L32.69728,27.95776 L29.12112,18.99744 L29.82496,15.27136 C30.02912,9.0408 29.5408,9.39456 29.4464,9.31152 C29.19568,9.23744 28.93264,9.19536 28.6568,9.19536 L26.4728,11.5536 L24.2888,9.19536 C24.01296,9.19536 23.75008,9.23728 23.4992,9.31152 C23.4048,9.39472 22.91648,9.0408 23.12064,15.27136 L23.82448,18.99744 L20.24832,27.95776 L24.85168,27.95776 L24.85168,37.38784" id="Shape"></path>
                    <path d="M5.5736,37.516 L5.57408,24.80128" id="Shape"></path>
                    <path d="M7.87424,3.39168 C7.87424,4.66208 6.84448,6.436 5.57408,6.436 C4.30368,6.436 3.27376,4.66208 3.27376,3.39168 C3.27376,2.12128 4.30352,1.09152 5.57392,1.09152 C6.84432,1.09152 7.87424,2.12144 7.87424,3.39168 L7.87424,3.39168 Z" id="Shape"></path>
                    <path d="M28.65696,3.74032 C28.65696,5.01072 27.6792,6.78464 26.47296,6.78464 C25.26672,6.78464 24.28896,5.01072 24.28896,3.74032 C24.28896,2.46992 25.26672,1.44 26.47296,1.44 C27.6792,1.44 28.65696,2.46992 28.65696,3.74032 L28.65696,3.74032 Z" id="Shape"></path>
                    <path d="M2.59696,37.516 L1.688,21.72928 C1.67472,21.39872 0.61312,21.82896 0.60144,21.51552 C0.16896,9.94288 1.1312,9.04304 1.23984,8.952 C1.36784,8.91616 2.41776,8.88784 2.73184,8.868 C3.1568,8.84128 3.52288,9.1008 3.71792,9.47904 C4.4096,10.82064 6.7384,10.82064 7.43008,9.47904 C7.62512,9.1008 7.99136,8.84128 8.41616,8.868 C8.7304,8.88784 9.78016,8.91616 9.90816,8.952 C10.0168,9.04304 10.97904,9.94288 10.54672,21.51568 C10.53504,21.82912 9.47344,21.39872 9.46016,21.72944 L8.55024,37.51616" id="Shape"></path>
                </g>
                <rect id="Rectangle-path" x="1.57808" y="0.00032" width="38.4" height="38.4"></rect>
            </g>
        </g>
    </g>
</svg>