<?xml version="1.0" encoding="UTF-8" standalone="no"?>
<svg width="65px" height="66px" viewBox="0 0 65 66" version="1.1" xmlns="http://www.w3.org/2000/svg" xmlns:xlink="http://www.w3.org/1999/xlink" xmlns:sketch="http://www.bohemiancoding.com/sketch/ns">
    <!-- Generator: Sketch 3.3.2 (12043) - http://www.bohemiancoding.com/sketch -->
    <title>shoes</title>
    <desc>Created with Sketch.</desc>
    <defs></defs>
    <g id="Mall-Dash" stroke="none" stroke-width="1" fill="none" fill-rule="evenodd" sketch:type="MSPage">
        <g id="shoes" sketch:type="MSLayerGroup">
            <circle id="Oval-9-Copy-10" fill="#FFFFFF" sketch:type="MSShapeGroup" cx="32.5" cy="32.825" r="32.5"></circle>
            <g id="thin-0998_women_high_heels_shoe" transform="translate(12.500000, 8.825000)" sketch:type="MSShapeGroup">
                <g id="Group" transform="translate(0.000000, 9.600000)" stroke="#000000" stroke-width="2">
                    <path d="M10.61424,16.87488 C10.61424,16.87488 21.6712,8.19936 29.92144,3.09616 C38.17168,-2.00704 33.40864,3.77664 28.56064,8.28448 C23.71264,12.79232 13.84624,21.89312 10.61424,16.87488 L10.61424,16.87488 Z" id="Shape"></path>
                    <path d="M34.29744,1.16944 C34.29744,1.16944 35.79024,1.13984 36.98096,6.41328 C38.17168,11.68672 33.80752,15.5864 33.80752,15.5864 L33.38288,24.80624 L31.11232,24.80624 L31.11232,17.47024 C31.11232,10.41088 25.18384,17.93696 21.61968,21.55296 C20.04656,23.14896 18.46112,24.23072 16.62288,24.74704 C16.33408,24.82816 16.03024,24.85872 15.7304,24.85872 L5.69456,24.85872 C5.25072,24.85872 4.80624,24.78432 4.40576,24.59296 C3.63456,24.22448 2.85184,23.71968 2.02384,23.08384 C-2.7392,19.42624 10.61424,16.87472 10.61424,16.87472" id="Shape"></path>
                </g>
                <rect id="Rectangle-path" x="0.02272" y="0.05504" width="38.4" height="38.4"></rect>
            </g>
        </g>
    </g>
</svg>